<?xml version="1.0" standalone="no"?>
<!DOCTYPE svg PUBLIC "-//W3C//DTD SVG 20010904//EN"
 "http://www.w3.org/TR/2001/REC-SVG-20010904/DTD/svg10.dtd">
<svg version="1.0" xmlns="http://www.w3.org/2000/svg"
 width="200.000000pt" height="200.000000pt" viewBox="0 0 200.000000 200.000000"
 preserveAspectRatio="xMidYMid meet">
<metadata>
Created by potrace 1.14, written by Peter Selinger 2001-2017
</metadata>
<g transform="translate(0.000000,200.000000) scale(0.100000,-0.100000)"
fill="#000000" stroke="none">
<path d="M976 1613 c-152 -34 -300 -151 -365 -289 l-34 -72 -34 15 c-53 21
-142 23 -207 3 -237 -74 -313 -375 -139 -552 65 -66 147 -101 237 -101 82 1
148 20 152 45 4 32 -20 40 -73 25 -188 -56 -376 107 -349 301 23 168 207 286
354 226 l39 -15 -1 -67 c-1 -62 1 -67 22 -70 25 -4 26 -3 41 98 35 228 222
397 452 406 146 5 260 -39 363 -141 161 -159 187 -397 66 -597 -41 -68 -44
-98 -9 -98 21 0 56 44 92 115 30 61 45 114 53 191 4 33 8 61 10 63 9 10 82
-21 111 -47 115 -102 93 -287 -42 -352 -42 -20 -111 -27 -162 -16 -46 10 -54
-48 -7 -60 99 -25 212 8 277 81 38 42 69 124 69 183 1 127 -95 245 -215 266
-21 4 -39 12 -41 19 -43 180 -142 316 -287 392 -114 60 -246 77 -373 48z"/>
<path d="M734 931 c-46 -21 -86 -68 -103 -122 -19 -59 -16 -246 4 -297 20 -50
89 -114 140 -129 40 -13 397 -18 465 -7 63 10 129 60 160 119 23 45 25 60 24
170 -1 128 -9 157 -55 212 -55 65 -68 68 -344 71 -228 2 -254 1 -291 -17z
m564 -69 c50 -36 65 -75 67 -176 3 -145 -16 -193 -92 -232 -39 -20 -59 -21
-254 -22 -190 -1 -216 1 -250 18 -73 38 -96 96 -93 236 2 69 7 101 22 131 35
68 52 72 326 70 235 -2 242 -3 274 -25z"/>
<path d="M937 813 c-4 -3 -7 -73 -7 -153 0 -116 3 -150 14 -159 12 -10 35 1
118 55 134 87 140 92 128 114 -12 22 -210 150 -232 150 -8 0 -18 -3 -21 -7z
m163 -152 c0 -4 -25 -23 -55 -44 l-55 -37 0 80 0 80 55 -36 c30 -20 55 -40 55
-43z"/>
</g>
</svg>
